<svg width="10" height="10" viewBox="0 0 10 10" fill="none" xmlns="http://www.w3.org/2000/svg">
<path fill-rule="evenodd" clip-rule="evenodd" d="M5 0C2.23858 0 0 2.23855 0 5C0 7.76141 2.23858 10 5 10C7.76144 10 10 7.76141 10 5C10 2.23855 7.76144 0 5 0ZM5 9C2.7944 9 1 7.20559 1 5C1 2.7944 2.7944 1 5 1C7.20562 1 9 2.7944 9 5C9 7.20559 7.20562 9 5 9ZM5.6261 3C5.6261 3.36252 5.36215 3.625 5.00508 3.625C4.63356 3.625 4.3761 3.36252 4.3761 2.99307C4.3761 2.63798 4.64053 2.375 5.00508 2.375C5.36215 2.375 5.6261 2.63798 5.6261 3ZM4.5011 4.5H5.5011V7.5H4.5011V4.5Z" fill="black"/>
</svg>
