<svg width="48" height="48" viewBox="0 0 48 48" fill="none" xmlns="http://www.w3.org/2000/svg">
<path d="M23.5949 3.9325C19.706 3.9325 15.9045 5.08567 12.6711 7.24621C9.43759 9.40674 6.91741 12.4776 5.42921 16.0704C3.94101 19.6632 3.55163 23.6167 4.31031 27.4308C5.06899 31.245 6.94165 34.7485 9.69148 37.4983C12.4413 40.2481 15.9448 42.1208 19.759 42.8795C23.5731 43.6381 27.5265 43.2488 31.1194 41.7606C34.7122 40.2724 37.783 37.7522 39.9436 34.5187C42.1041 31.2853 43.2573 27.4837 43.2573 23.5949C43.2573 21.0128 42.7487 18.456 41.7606 16.0704C40.7724 13.6849 39.3241 11.5173 37.4983 9.69147C35.6725 7.86565 33.5049 6.41733 31.1194 5.42921C28.7338 4.44108 26.177 3.9325 23.5949 3.9325ZM29.4936 25.5611H25.5611V29.4936C25.5611 30.0151 25.354 30.5152 24.9852 30.8839C24.6165 31.2527 24.1164 31.4598 23.5949 31.4598C23.0734 31.4598 22.5733 31.2527 22.2046 30.8839C21.8358 30.5152 21.6287 30.0151 21.6287 29.4936V25.5611H17.6962C17.1747 25.5611 16.6746 25.354 16.3058 24.9852C15.9371 24.6165 15.7299 24.1164 15.7299 23.5949C15.7299 23.0734 15.9371 22.5733 16.3058 22.2045C16.6746 21.8358 17.1747 21.6286 17.6962 21.6286H21.6287V17.6962C21.6287 17.1747 21.8358 16.6746 22.2046 16.3058C22.5733 15.9371 23.0734 15.7299 23.5949 15.7299C24.1164 15.7299 24.6165 15.9371 24.9852 16.3058C25.354 16.6746 25.5611 17.1747 25.5611 17.6962V21.6286H29.4936C30.0151 21.6286 30.5152 21.8358 30.8839 22.2045C31.2527 22.5733 31.4598 23.0734 31.4598 23.5949C31.4598 24.1164 31.2527 24.6165 30.8839 24.9852C30.5152 25.354 30.0151 25.5611 29.4936 25.5611Z" fill="#000"/>
</svg>
