<svg width="10" height="8" viewBox="0 0 10 8" fill="none" xmlns="http://www.w3.org/2000/svg">
<path d="M9.6902 0.309799C9.27421 -0.103266 8.60407 -0.103266 8.19101 0.309799L3.54841 4.95752L1.80899 3.21957C1.393 2.8065 0.722865 2.8065 0.309799 3.21957C-0.103266 3.63556 -0.103266 4.3057 0.309799 4.71876L2.69811 7.10488C2.72667 7.14223 2.75817 7.17885 2.79259 7.21327C3.04599 7.46668 3.39534 7.56555 3.72199 7.50989C3.93584 7.4762 4.14164 7.37732 4.3057 7.21327C4.34012 7.17885 4.37161 7.14223 4.40018 7.10415L9.6902 1.80899C10.1033 1.393 10.1033 0.722865 9.6902 0.309799Z" fill="black"/>
</svg>
