<svg width="9" height="15" viewBox="0 0 9 15" fill="none" xmlns="http://www.w3.org/2000/svg">
<path d="M8.25021 14.6866C8.4509 14.4858 8.56364 14.2136 8.56364 13.9297C8.56364 13.6459 8.4509 13.3736 8.25021 13.1729L2.58403 7.50669L8.25021 1.84051C8.35246 1.74176 8.43401 1.62363 8.49012 1.49303C8.54622 1.36242 8.57575 1.22195 8.57699 1.07981C8.57822 0.937666 8.55113 0.796704 8.49731 0.665143C8.44348 0.533582 8.36399 0.414057 8.26348 0.313544C8.16297 0.213032 8.04345 0.133542 7.91188 0.0797167C7.78032 0.0258904 7.63936 -0.00119495 7.49722 4.00543e-05C7.35508 0.00127506 7.21461 0.0308075 7.084 0.0869122C6.95339 0.143016 6.83527 0.224568 6.73652 0.326813L0.313486 6.74984C0.112798 6.95059 5.72205e-05 7.22283 5.72205e-05 7.50669C5.72205e-05 7.79055 0.112798 8.06279 0.313486 8.26354L6.73652 14.6866C6.93727 14.8873 7.20951 15 7.49337 15C7.77723 15 8.04946 14.8873 8.25021 14.6866Z" fill="#FBFAFB"/>
</svg>
