<svg width="9" height="16" viewBox="0 0 9 16" fill="none" xmlns="http://www.w3.org/2000/svg">
    <path d="M0.326813 15.4944C0.126125 15.2937 0.0133838 15.0214 0.0133838 14.7376C0.0133838 14.4537 0.126125 14.1815 0.326813 13.9807L5.993 8.31452L0.326813 2.64834C0.224569 2.54959 0.143015 2.43146 0.086911 2.30086C0.0308068 2.17025 0.00127558 2.02978 4.04177e-05 1.88764C-0.00119475 1.7455 0.0258916 1.60454 0.0797176 1.47297C0.133544 1.34141 0.213032 1.22189 0.313545 1.12138C0.414057 1.02086 0.533581 0.941373 0.665142 0.887547C0.796703 0.833721 0.937666 0.806636 1.07981 0.807871C1.22195 0.809106 1.36242 0.838638 1.49303 0.894743C1.62363 0.950847 1.74176 1.0324 1.84051 1.13464L8.26354 7.55768C8.46423 7.75842 8.57697 8.03066 8.57697 8.31452C8.57697 8.59838 8.46423 8.87062 8.26354 9.07137L1.84051 15.4944C1.63976 15.6951 1.36752 15.8078 1.08366 15.8078C0.799801 15.8078 0.527563 15.6951 0.326813 15.4944Z"
          fill="#000"/>
</svg>
