<svg width="86" height="86" viewBox="0 0 86 86" fill="none" xmlns="http://www.w3.org/2000/svg">
<path d="M42.76 0C19.1385 0 0 19.1385 0 42.76C0 66.3815 19.1385 85.52 42.76 85.52C66.3815 85.52 85.52 66.3815 85.52 42.76C85.52 19.1385 66.3815 0 42.76 0ZM42.76 16.5523C51.1396 16.5523 57.9329 23.3456 57.9329 31.7252C57.9329 40.1047 51.1396 46.8981 42.76 46.8981C34.3804 46.8981 27.5871 40.1047 27.5871 31.7252C27.5871 23.3456 34.3804 16.5523 42.76 16.5523ZM42.76 75.8645C32.639 75.8645 23.5697 71.2782 17.5006 64.1055C20.742 58.0019 27.0871 53.7948 34.4839 53.7948C34.8977 53.7948 35.3115 53.8638 35.708 53.9845C37.9495 54.7087 40.2944 55.1742 42.76 55.1742C45.2256 55.1742 47.5877 54.7087 49.812 53.9845C50.2085 53.8638 50.6223 53.7948 51.0361 53.7948C58.4329 53.7948 64.778 58.0019 68.0194 64.1055C61.9503 71.2782 52.881 75.8645 42.76 75.8645Z" fill="white"/>
</svg>
