<svg width="25" height="25" viewBox="0 0 25 25" fill="none" xmlns="http://www.w3.org/2000/svg">
<path d="M19.7917 20.8333H5.20832C4.93206 20.8333 4.6671 20.9431 4.47175 21.1384C4.2764 21.3338 4.16666 21.5987 4.16666 21.875C4.16666 22.1513 4.2764 22.4162 4.47175 22.6116C4.6671 22.8069 4.93206 22.9167 5.20832 22.9167H19.7917C20.0679 22.9167 20.3329 22.8069 20.5282 22.6116C20.7236 22.4162 20.8333 22.1513 20.8333 21.875C20.8333 21.5987 20.7236 21.3338 20.5282 21.1384C20.3329 20.9431 20.0679 20.8333 19.7917 20.8333Z" fill="#231F20"/>
<path d="M5.20839 18.75H5.30214L9.64589 18.3541C10.1217 18.3067 10.5668 18.0971 10.9063 17.7604L20.2813 8.3854C20.6452 8.00099 20.8418 7.48801 20.8282 6.95887C20.8145 6.42973 20.5916 5.92759 20.2084 5.56248L17.3542 2.70831C16.9817 2.35841 16.4936 2.15764 15.9827 2.1442C15.4718 2.13076 14.9738 2.30557 14.5834 2.6354L5.20839 12.0104C4.87169 12.3499 4.66204 12.795 4.61464 13.2708L4.16672 17.6146C4.15269 17.7671 4.17249 17.9209 4.2247 18.065C4.27692 18.209 4.36027 18.3398 4.4688 18.4479C4.56614 18.5444 4.68157 18.6208 4.80849 18.6727C4.9354 18.7245 5.0713 18.7508 5.20839 18.75ZM15.9063 4.16665L18.7501 7.0104L16.6667 9.04165L13.8751 6.24998L15.9063 4.16665Z" fill="#231F20"/>
</svg>
