<svg width="22" height="22" viewBox="0 0 22 22" fill="#000" xmlns="http://www.w3.org/2000/svg">
    <path d="M21.7861 8.84565H20.9V8.8H11V13.2H17.2167C16.3097 15.7614 13.8727 17.6 11 17.6C7.35515 17.6 4.4 14.6448 4.4 11C4.4 7.35515 7.35515 4.4 11 4.4C12.6825 4.4 14.2131 5.0347 15.3786 6.07145L18.4899 2.9601C16.5253 1.12915 13.8974 0 11 0C4.92525 0 0 4.92525 0 11C0 17.0748 4.92525 22 11 22C17.0748 22 22 17.0748 22 11C22 10.2625 21.9241 9.5425 21.7861 8.84565Z"
          fill="#000"/>
    <path d="M1.26831 5.88005L4.88236 8.5305C5.86026 6.1094 8.22856 4.4 11 4.4C12.6825 4.4 14.2131 5.0347 15.3786 6.07145L18.4899 2.9601C16.5253 1.12915 13.8974 0 11 0C6.77491 0 3.11081 2.38535 1.26831 5.88005Z"
          fill="#000"/>
    <path d="M10.9998 22C13.8411 22 16.4228 20.9126 18.3747 19.1444L14.9702 16.2635C13.8658 17.1 12.493 17.6 10.9998 17.6C8.13868 17.6 5.70933 15.7756 4.79413 13.2297L1.20703 15.9934C3.02753 19.5558 6.72463 22 10.9998 22Z"
          fill="#000"/>
    <path d="M21.786 8.8457H20.9V8.80005H11V13.2H17.2167C16.7811 14.4304 15.9896 15.4913 14.9688 16.2641C14.9693 16.2635 14.9699 16.2635 14.9704 16.263L18.375 19.1439C18.1341 19.3628 22 16.5 22 11C22 10.2625 21.9241 9.54255 21.786 8.8457Z"
          fill="#000"/>
</svg>
