<svg width="24" height="31" viewBox="0 0 24 31" fill="none" xmlns="http://www.w3.org/2000/svg">
<path fill-rule="evenodd" clip-rule="evenodd" d="M11.5059 30.7005C11.5063 30.7006 11.5065 30.7008 12 30L11.5059 30.7005ZM12.4941 30.7005L12.4971 30.6982L12.5049 30.6927L12.5322 30.6732C12.5556 30.6564 12.5893 30.6321 12.6325 30.6003C12.7189 30.5368 12.8436 30.4438 13.0012 30.3227C13.3163 30.0804 13.7632 29.7252 14.2981 29.2679C15.3666 28.3543 16.7921 27.0281 18.2199 25.3765C21.0548 22.0971 24 17.4167 24 12.0659C24 8.86749 22.7369 5.799 20.4871 3.5358C18.237 1.27246 15.1842 0 12 0C8.8158 0 5.763 1.27246 3.51291 3.5358C1.26309 5.799 0 8.86749 0 12.0659C0 17.4167 2.94523 22.0971 5.78014 25.3765C7.20789 27.0281 8.6334 28.3543 9.70191 29.2679C10.2368 29.7252 10.6837 30.0804 10.9988 30.3227C11.1564 30.4438 11.2811 30.5368 11.3675 30.6003C11.4107 30.6321 11.4444 30.6564 11.4678 30.6732L11.4951 30.6927L11.5029 30.6982L11.5059 30.7005C11.8019 30.9088 12.1981 30.9088 12.4941 30.7005ZM12 30L12.4941 30.7005C12.4937 30.7006 12.4935 30.7008 12 30ZM16.2857 12C16.2857 14.3669 14.3669 16.2857 12 16.2857C9.63309 16.2857 7.71429 14.3669 7.71429 12C7.71429 9.63309 9.63309 7.71429 12 7.71429C14.3669 7.71429 16.2857 9.63309 16.2857 12Z" fill="#000"/>
</svg>
