<svg width="30" height="30" viewBox="0 0 30 30" fill="none" xmlns="http://www.w3.org/2000/svg">
<path d="M15 18.75C17.0711 18.75 18.75 17.0711 18.75 15C18.75 12.9289 17.0711 11.25 15 11.25C12.9289 11.25 11.25 12.9289 11.25 15C11.25 17.0711 12.9289 18.75 15 18.75Z" stroke="#6E64BD" stroke-width="3" stroke-linecap="round" stroke-linejoin="round"/>
<path d="M15 25C20.5228 25 25 20.5228 25 15C25 9.47715 20.5228 5 15 5C9.47715 5 5 9.47715 5 15C5 20.5228 9.47715 25 15 25Z" stroke="#6E64BD" stroke-width="3" stroke-linecap="round" stroke-linejoin="round"/>
<path d="M15 2.5V5" stroke="#6E64BD" stroke-width="3" stroke-linecap="round" stroke-linejoin="round"/>
<path d="M15 25V27.5" stroke="#6E64BD" stroke-width="3" stroke-linecap="round" stroke-linejoin="round"/>
<path d="M25 15H27.5" stroke="#6E64BD" stroke-width="3" stroke-linecap="round" stroke-linejoin="round"/>
<path d="M2.5 15H5" stroke="#6E64BD" stroke-width="3" stroke-linecap="round" stroke-linejoin="round"/>
</svg>
