<svg width="28" height="28" viewBox="0 0 28 28" fill="none" xmlns="http://www.w3.org/2000/svg">
<path d="M24 14C24 19.5228 19.5229 24 14 24M24 14C24 8.47715 19.5229 4 14 4M24 14L26.5 14M14 24C8.47717 24 4.00002 19.5228 4.00002 14M14 24L14 26.5M4.00002 14C4.00002 8.47715 8.47717 4 14 4M4.00002 14L1.5 14M14 4L14 1.5M17.75 14C17.75 16.0711 16.0711 17.75 14 17.75C11.929 17.75 10.25 16.0711 10.25 14C10.25 11.9289 11.929 10.25 14 10.25C16.0711 10.25 17.75 11.9289 17.75 14Z" stroke="black" stroke-width="3" stroke-linecap="round" stroke-linejoin="round"/>
</svg>
