<svg width="20" height="24" viewBox="0 0 20 24" fill="none" xmlns="http://www.w3.org/2000/svg">
<path d="M19.5795 16.0963C19.4932 15.9922 19.4083 15.8882 19.3251 15.7877C18.1802 14.403 17.4876 13.5672 17.4876 9.64707C17.4876 7.61753 17.002 5.95227 16.045 4.70332C15.3394 3.78066 14.3855 3.08073 13.1282 2.56346C13.112 2.55446 13.0976 2.54266 13.0855 2.5286C12.6333 1.01425 11.3958 0 10.0001 0C8.60443 0 7.36745 1.01425 6.91523 2.52703C6.90316 2.54058 6.88892 2.55201 6.87308 2.56086C3.9391 3.7687 2.51322 6.08601 2.51322 9.64551C2.51322 13.5672 1.82161 14.403 0.675703 15.7862C0.59244 15.8866 0.507615 15.9886 0.42123 16.0948C0.198085 16.3639 0.0567046 16.6913 0.0138202 17.0382C-0.0290643 17.3852 0.0283424 17.7371 0.179246 18.0525C0.50033 18.729 1.18465 19.149 1.96576 19.149H18.0402C18.8177 19.149 19.4973 18.7295 19.8195 18.0561C19.971 17.7407 20.029 17.3884 19.9864 17.0411C19.9439 16.6937 19.8027 16.3659 19.5795 16.0963Z" fill="#0F0F0F"/>
<path d="M10.0001 23.3137C10.7521 23.3131 11.4899 23.1089 12.1352 22.7229C12.7806 22.3369 13.3095 21.7835 13.6657 21.1212C13.6825 21.0895 13.6908 21.054 13.6898 21.0181C13.6888 20.9822 13.6785 20.9472 13.66 20.9164C13.6414 20.8857 13.6153 20.8603 13.584 20.8426C13.5527 20.825 13.5174 20.8157 13.4815 20.8158H6.51968C6.48373 20.8156 6.44837 20.8248 6.41703 20.8424C6.38568 20.86 6.35943 20.8854 6.34083 20.9162C6.32223 20.947 6.31191 20.982 6.31088 21.018C6.30984 21.0539 6.31814 21.0895 6.33494 21.1212C6.69117 21.7834 7.21995 22.3368 7.86522 22.7228C8.51048 23.1088 9.24818 23.313 10.0001 23.3137Z" fill="#0F0F0F"/>
</svg>
