<svg width="72" height="72" viewBox="0 0 72 72" fill="none" xmlns="http://www.w3.org/2000/svg">
<path d="M65.7764 46.5887C64.9322 46.1694 63.956 46.1025 63.0624 46.4025C62.1688 46.7026 61.4309 47.3452 61.0109 48.189C58.7599 52.7348 55.3345 56.5962 51.0895 59.3731C46.8446 62.15 41.9344 63.7415 36.8675 63.9827C31.8007 64.224 26.7615 63.1062 22.2719 60.7452C17.7823 58.3841 14.0055 54.8657 11.3328 50.5543C8.66016 46.243 7.18875 41.2955 7.07101 36.2242C6.95327 31.153 8.19348 26.1425 10.6632 21.7118C13.1329 17.281 16.7423 13.5911 21.1175 11.0243C25.4927 8.45741 30.4746 7.10697 35.5471 7.1128C40.8501 7.08984 46.0522 8.56251 50.5562 11.3618C55.0602 14.1611 58.6837 18.1736 61.0109 22.9387C61.4353 23.7876 62.1796 24.4331 63.08 24.7332C63.9804 25.0334 64.9631 24.9635 65.812 24.5391C66.6609 24.1146 67.3064 23.3704 67.6065 22.47C67.9066 21.5696 67.8368 20.5869 67.4123 19.738C63.8439 12.5567 57.9532 6.79223 50.6964 3.38012C43.4395 -0.0319803 35.2425 -0.891412 27.4358 0.941322C19.629 2.77406 12.6708 7.19137 7.69044 13.4763C2.7101 19.7612 0 27.5449 0 35.5639C0 43.5829 2.7101 51.3665 7.69044 57.6514C12.6708 63.9364 19.629 68.3537 27.4358 70.1864C35.2425 72.0192 43.4395 71.1597 50.6964 67.7476C57.9532 64.3355 63.8439 58.571 67.4123 51.3898C67.6243 50.9679 67.7501 50.508 67.7824 50.037C67.8148 49.566 67.753 49.0932 67.6007 48.6463C67.4485 48.1994 67.2087 47.7873 66.8955 47.434C66.5823 47.0808 66.2019 46.7934 65.7764 46.5887ZM67.5546 32.0075H33.4489L41.6286 23.8634C41.9602 23.5318 42.2232 23.1381 42.4026 22.7049C42.5821 22.2716 42.6745 21.8073 42.6745 21.3383C42.6745 20.8694 42.5821 20.405 42.4026 19.9718C42.2232 19.5386 41.9602 19.1449 41.6286 18.8133C41.297 18.4817 40.9033 18.2187 40.4701 18.0392C40.0368 17.8598 39.5725 17.7674 39.1035 17.7674C38.6346 17.7674 38.1702 17.8598 37.737 18.0392C37.3037 18.2187 36.9101 18.4817 36.5785 18.8133L22.353 33.0388C22.0292 33.3771 21.7754 33.7759 21.6061 34.2124C21.2504 35.0783 21.2504 36.0495 21.6061 36.9153C21.7754 37.3519 22.0292 37.7507 22.353 38.0889L36.5785 52.3144C36.9091 52.6478 37.3025 52.9124 37.7358 53.0929C38.1692 53.2735 38.634 53.3664 39.1035 53.3664C39.573 53.3664 40.0379 53.2735 40.4712 53.0929C40.9046 52.9124 41.298 52.6478 41.6286 52.3144C41.9619 51.9838 42.2265 51.5905 42.407 51.1571C42.5876 50.7237 42.6805 50.2589 42.6805 49.7894C42.6805 49.3199 42.5876 48.8551 42.407 48.4217C42.2265 47.9883 41.9619 47.595 41.6286 47.2644L33.4489 39.1203H67.5546C68.4978 39.1203 69.4024 38.7456 70.0694 38.0786C70.7363 37.4117 71.111 36.5071 71.111 35.5639C71.111 34.6207 70.7363 33.7161 70.0694 33.0491C69.4024 32.3822 68.4978 32.0075 67.5546 32.0075Z" fill="black"/>
</svg>
