<svg width="72" height="72" viewBox="0 0 72 72" fill="none" xmlns="http://www.w3.org/2000/svg">
<path d="M37.6621 39.1206L29.4824 47.2647C29.1491 47.5953 28.8845 47.9887 28.704 48.422C28.5234 48.8554 28.4305 49.3203 28.4305 49.7897C28.4305 50.2592 28.5234 50.7241 28.704 51.1574C28.8845 51.5908 29.1491 51.9842 29.4824 52.3148C29.813 52.6481 30.2064 52.9127 30.6398 53.0932C31.0731 53.2738 31.538 53.3667 32.0075 53.3667C32.4769 53.3667 32.9418 53.2738 33.3752 53.0932C33.8085 52.9127 34.2019 52.6481 34.5325 52.3148L48.758 38.0892C49.0818 37.751 49.3356 37.3522 49.5049 36.9156C49.8606 36.0498 49.8606 35.0786 49.5049 34.2128C49.3356 33.7762 49.0818 33.3774 48.758 33.0392L34.5325 18.8136C34.2009 18.482 33.8072 18.219 33.374 18.0395C32.9408 17.8601 32.4764 17.7677 32.0075 17.7677C31.5385 17.7677 31.0742 17.8601 30.6409 18.0395C30.2077 18.219 29.814 18.482 29.4824 18.8136C29.1508 19.1452 28.8878 19.5389 28.7083 19.9721C28.5289 20.4054 28.4365 20.8697 28.4365 21.3387C28.4365 21.8076 28.5289 22.272 28.7083 22.7052C28.8878 23.1384 29.1508 23.5321 29.4824 23.8637L37.6621 32.0078H3.55638C2.61317 32.0078 1.70859 32.3825 1.04164 33.0495C0.374689 33.7164 0 34.621 0 35.5642C0 36.5074 0.374689 37.412 1.04164 38.0789C1.70859 38.7459 2.61317 39.1206 3.55638 39.1206H37.6621ZM35.5638 0.000354549C28.9173 -0.0293192 22.3954 1.8042 16.738 5.29294C11.0806 8.78167 6.51407 13.786 3.55638 19.7383C3.13194 20.5872 3.0621 21.5699 3.36223 22.4703C3.66236 23.3707 4.30787 24.115 5.15676 24.5394C6.00565 24.9639 6.98838 25.0337 7.88876 24.7336C8.78915 24.4334 9.53343 23.7879 9.95788 22.939C12.2062 18.3987 15.6262 14.5411 19.8644 11.7648C24.1026 8.98861 29.0052 7.3945 34.0657 7.14724C39.1262 6.89998 44.161 8.00854 48.6496 10.3584C53.1383 12.7082 56.918 16.214 59.5983 20.5136C62.2785 24.8131 63.762 29.7504 63.8954 34.8152C64.0288 39.8799 62.8074 44.8885 60.3572 49.3232C57.9071 53.7579 54.3172 57.4579 49.9584 60.0407C45.5997 62.6236 40.6303 63.9957 35.5638 64.0153C30.2609 64.0382 25.0588 62.5656 20.5548 59.7663C16.0508 56.967 12.4273 52.9545 10.1001 48.1894C9.67569 47.3405 8.93141 46.695 8.03102 46.3948C7.13064 46.0947 6.1479 46.1645 5.29901 46.589C4.45012 47.0134 3.80461 47.7577 3.50448 48.6581C3.20435 49.5585 3.27419 50.5412 3.69864 51.3901C6.51824 57.0644 10.8026 61.8823 16.1085 65.3455C21.4145 68.8088 27.5493 70.7916 33.8785 71.0889C40.2077 71.3862 46.5015 69.9871 52.1087 67.0365C57.7159 64.0858 62.433 59.6907 65.772 54.3057C69.1111 48.9207 70.9508 42.7415 71.101 36.4071C71.2512 30.0727 69.7063 23.8132 66.6262 18.276C63.546 12.7389 59.0425 8.12515 53.5814 4.9121C48.1204 1.69904 41.9 0.0033293 35.5638 0.000354549Z" fill="black"/>
</svg>
